<svg xmlns="http://www.w3.org/2000/svg" xml:space="preserve" width="2000" height="706" data-id="lg_yDRWvyS47qSlcs82yg" data-version="1" viewBox="0 0 2000 706"><g data-padding="20"><g transform="translate(10 16.23)scale(.95402)"><path fill="#196129" d="M1036.957 705.972q-86.686.028-173.372-.054c-7.48 0-14.96-.517-22.413-1.115-9.602-.735-13.437-5.36-15.94-14.634-5.983-22.168-1.985-44.58-2.339-66.83-.68-43.955-.68-87.91-.625-131.866.054-35.985.19-71.971.98-107.93.842-38.895-1.769-77.683-2.476-116.524-.49-26.466.517-52.96.462-79.451-.136-36.72-.843-73.413-.843-110.106q0-32.26 1.523-64.464c.463-10.39 2.91-11.968 13.79-12.05q39.74-.3 79.506-.38C974.588.486 1033.938.54 1093.316.486q60.465-.054 120.931-.245c8.133 0 16.293-.245 24.426-.217 6.555.027 10.77 3.89 12.403 9.737a70.7 70.7 0 0 1 3.046 18.66c.055 50.945-.49 101.918-.38 152.863.081 46.43.897 92.834 1.06 139.264.082 25.786-.734 51.599-.68 77.384.082 34.19.816 68.38.898 102.544.081 38.27-.354 76.568-.408 114.839 0 19.013.462 38.053.353 57.065-.027 5.386-1.196 10.799-2.23 16.103-1.768 8.867-6.066 13.137-15.232 13.573q-26.493 1.17-52.986 1.25c-49.177.164-98.355.055-147.532.055v2.557Zm-29.376-680.108v-.87c-11.342 0-22.657.08-34 0q-60.819-.49-121.61-1.198c-6.72-.081-7.78 3.536-7.726 9.085q.408 57.066.68 114.186.463 96.832 1.007 193.664.462 68.299 1.033 136.598l1.442 193.637c.11 13.029 2.638 15.368 15.694 14.987 26.058-.734 52.088-1.577 78.146-2.15 59.813-1.277 119.598-2.392 179.411-3.59 5.875-.108 11.75-.57 17.653-.543q39.06.19 78.146.57c6.528.056 9.384-3.072 9.492-9.52.164-10.88.87-21.732.98-32.612q.435-38.27.435-76.513c-.027-50.293-.218-100.586-.327-150.906-.054-24.425-.217-48.878 0-73.304.164-17.435 1.17-34.87 1.28-52.278.08-11.533-1.144-23.066-1.035-34.6.272-25.757 1.387-51.49 1.523-77.247.272-45.75.082-91.5.136-137.25 0-9.494-1.523-11.098-11.043-10.962-21.515.299-43.03.76-64.545.816-48.933.136-97.866.027-146.826.027Z"/><path fill="#196129" d="m1044.628 409.547 167.062-3.183c7.453-.136 9.575 1.415 9.656 8.813q.6 47.872.816 95.69c.136 31.47 0 62.968 0 94.438v59.106c0 6.365-2.937 9.493-9.547 9.547q-32.586.3-65.198.925c-30.3.544-60.602 1.469-90.903 1.74-30.137.273-60.275-.353-90.385 0-21.733.245-43.439 1.388-65.144 2.15-12.213.407-24.426.95-36.666 1.223-5.794.136-8.813-3.155-8.813-8.894 0-13.138.163-26.275.19-39.413.082-29.648.245-59.296.11-88.944-.11-22.848-.87-45.696-.953-68.544-.054-18.333.68-36.665.68-54.998 0-6.093 2.122-8.568 8.296-8.595 41.208-.245 82.416-.735 123.624-1.034 16.973-.136 33.973 0 57.148 0Zm-53.53 190.509 1.741-1.061c1.877 1.632 4.325 2.91 5.522 4.95a163 163 0 0 1 7.942 15.695c5.957 13.192 11.642 26.52 17.68 39.657 1.904 4.162 5.195 7.535 10.254 5.195 5.032-2.34 4.706-7.18 2.666-11.152-2.122-4.107-5.685-7.425-8.269-11.342-3.155-4.733-7.017-9.411-8.622-14.688a212 212 0 0 1-5.957-28.533c-.898-5.712-2.965-8.27-9.14-8.214-3.345 0-8.948-1.904-9.546-4.053-.952-3.427.652-8.214 2.584-11.642 2.747-4.841 6.8-8.894 10.227-13.355 3.128-4.08 7.18-4.216 10.88-.353 1.523 1.577 3.155 3.046 4.134 3.97l5.005-8.404 8.323 7.208c.136-2.938.354-4.923.327-6.91q-.68-41.778-1.55-83.53c-.327-15.803.434-31.715-6.257-46.784-2.257-5.032-5.385-7.725-10.69-7.752q-11.532-.136-23.01.354c-4.38.217-5.468 3.019-3.945 8.05l8.378-5.847c1.224 6.147 4.814 7.18 9.955 5.902 1.85-.462 4.135.082 6.011.707a13.06 13.06 0 0 1 9.303 12.186c.3 5.358-3.509 7.29-8.378 8.976a14.42 14.42 0 0 0-7.915 7.834c-3.074 9.22-4.325 19.04-7.48 28.206-2.666 7.78-5.957 15.749-10.77 22.304a48.96 48.96 0 0 0-10.092 27.526c-.11 2.258.625 4.57 1.196 8.514 2.04-2.638 3.047-3.726 3.836-4.978 4.596-7.208 8.948-14.552 13.736-21.65 7.126-10.61 13.6-21.38 14.66-34.545.327-3.835.898-7.67 1.932-11.37.462-1.66 2.393-2.91 3.672-4.351 1.06 1.523 2.665 2.937 3.1 4.624.87 3.508.925 7.18 1.605 10.744 2.64 13.899.055 26.52-8.867 37.699-6.066 7.616-11.75 15.53-18.034 22.957-9.003 10.608-14.416 22.793-14.497 36.556-.163 26.493.517 52.986 1.088 79.479.054 2.013 1.985 5.576 3.345 5.712 6.093.625 12.295.272 20.292.272-13.437-20.563-14.416-42.786-16.32-64.79Zm105.89-41.997 1.877-.517c0-10.091-.327-20.182.108-30.274.354-7.724-2.937-13.056-9.057-17.027a19.04 19.04 0 0 1-8.677-13.845 294 294 0 0 0-5.712-30.001c-1.85-7.072-4.162-14.743-13.274-16.266q-8.132-1.36-7.806-9.33c.272-5.684 3.51-9.247 9.03-10.363 2.394-.49 5.005.082 7.426-.353 1.55-.272 4.107-1.387 4.19-2.34 1.114-10.743 4.95-3.7 8.268-1.495 1.305.87 3.073 1.06 4.65 1.577.436-1.66 1.796-3.971 1.143-4.896-1.496-2.121-3.862-4.923-6.038-5.06-8.323-.543-16.728-.407-25.079.11-2.176.136-5.576 2.257-6.12 4.107-2.937 10.39-7.208 20.97-7.29 31.525-.27 34.625 1.062 69.25 1.85 103.877.055 1.904.898 3.753 1.36 5.657 2.367-1.66 2.802-3.51 3.944-4.705 1.524-1.605 3.564-2.693 5.386-4 .843 2.096 1.958 4.136 2.42 6.339.41 1.985.082 4.134.082 6.5l9.71-9.166 2.15 8.432c5.684 1.605 11.424 3.754 15.504 7.643 4.515 4.325 2.584 10.935-3.564 12.077-8.676 1.605-11.424 7.018-12.539 14.552-.544 3.808-1.333 7.589-2.013 11.37-2.23 12.593-4.868 24.86-15.694 33.619a13.6 13.6 0 0 0-4.189 8.813c-.217 2.61 1.986 5.413 3.128 8.133 2.203-1.605 5.304-2.748 6.447-4.924 3.128-5.984 5.25-12.512 8.105-18.66q8.215-17.788 16.946-35.304c.98-1.96 3.454-3.21 5.25-4.76l1.822 1.196c-.19 2.122-.163 4.298-.653 6.365-3.427 15.232-7.262 30.383-10.39 45.669-2.72 13.274-2.42 13.192 11.233 12.05 4.298-.354 6.12-2.176 6.093-6.338-.136-21.27.136-42.568-.435-63.838-.354-13.356-3.863-25.405-14.035-35.632-6.148-6.202-10.336-14.88-13.818-23.093-9.683-22.903-9.928-47.71-13.002-71.917-.136-1.088.844-2.312 1.741-4.624 2.285 2.72 4.57 4.434 5.522 6.718 3.318 7.916 7.425 15.776 9.003 24.072 4.053 21.597 11.805 41.78 20.726 61.663 1.061 2.393 2.775 4.488 4.19 6.718Zm58.833 4.678c.19-2.856.572-5.195.463-7.534-.19-4.733-.98-9.493-.952-14.226.081-23.773.517-47.573.49-71.345-.028-14.008-.653-27.99-1.17-41.997-.218-5.875-3.78-9.303-9.493-9.63q-12.24-.68-24.453-.162c-1.74.08-4.379 2.448-4.787 4.216-.462 1.958 1.115 4.406 1.822 6.664q3.074-1.333 6.066-2.747c2.04-.952 4.27-3.156 5.984-2.775 4.38.952 8.46 3.21 12.73 4.65 5.684 1.905 9.737 7.237 9.166 12.785-.626 6.31-4.216 8.677-10.526 9.03-2.503.137-6.338 3.129-6.936 5.495a212 212 0 0 0-5.168 27.935c-1.306 11.124-3.917 21.27-13.274 28.64-7.262 5.713-10.635 21.843-6.202 32.913 2.23-4.107 4-7.235 5.658-10.39 6.256-12.023 13.491-23.691 18.36-36.258 3.78-9.737 4.38-20.672 6.854-30.953.572-2.312 3.128-4.162 4.76-6.202.844 2.34 2.448 4.678 2.448 7.018-.054 9.275-.816 18.55-.952 27.852-.272 17.082-6.01 31.933-17.979 44.173-13.79 14.09-21.297 30.328-20.617 50.592.734 21.46-.272 43.003-.028 64.49.028 2.857 2.23 7.48 4.352 8.107 4.325 1.25 9.412.87 13.845-.19.898-.218 1.115-6.556.408-9.792-3.373-15.477-7.235-30.872-10.69-46.322-.57-2.557-.08-5.386-.08-9.955 2.937 2.638 4.841 3.672 5.711 5.277 5.168 9.465 10.526 18.85 15.014 28.64 3.944 8.596 6.61 17.817 10.445 26.467.898 2.04 4.298 3.019 6.528 4.46.79-2.638 2.666-5.548 2.122-7.86a20.4 20.4 0 0 0-5.25-8.46 35.36 35.36 0 0 1-9.928-19.638c-.952-6.718-2.149-13.41-2.91-20.155-.843-7.426-3.78-12.485-11.615-14.77-9.166-2.665-10.69-9.52-4.84-17.326a21.8 21.8 0 0 0 3.861-6.963c1.877-6.99 5.522-8.378 11.533-3.944l5.875 4.297 3.7-10.472 9.71 6.392Zm-252.497-9.765c2.393-2.801 4.406-4.76 5.902-7.072 1.306-2.04 3.291-4.787 2.802-6.636-3.944-15.07-7.589-30.328-12.947-44.908-5.359-14.58-13.247-28.288-18.66-42.867-2.856-7.67-2.502-16.483-4.216-24.643-.49-2.285-3.182-4.134-4.84-6.174-1.96 2.067-4.08 4.025-5.822 6.256-.57.734-.272 2.203-.272 3.318-.136 14.28-.435 28.533-.326 42.813.326 42.323.897 84.673 1.25 126.997q.191 29.212.082 58.398c0 4.57 1.388 7.045 6.501 7.453 11.968.952 12.295.734 8.16-10.853-.462-1.278-1.06-2.502-1.469-3.808-3.998-12.322-7.588-24.752-5.93-37.917.218-1.795 2.15-3.4 3.265-5.086 1.006 1.577 2.693 3.073 2.937 4.787 2.856 19.013 13.981 34.19 23.23 50.21.951 1.633 4.16 2.91 6.092 2.64 1.306-.19 2.965-3.32 3.128-5.223.598-7.997-1.034-15.232-7.97-20.536-9.275-7.1-13-17.054-13.844-28.37-.354-4.732-1.333-9.438-1.415-14.198-.136-7.697-3.264-11.913-11.206-13.573-8.65-1.795-10.336-7.942-5.06-15.313 1.96-2.72 5.141-5.168 5.685-8.133 1.088-5.794 3.672-5.331 7.535-3.237q2.53 1.36 5.005 2.775c0-3.047-1.034-5.168-2.285-7.154-12.186-19.312-19.448-39.902-15.83-63.104.543-3.563 2.991-6.854 4.57-10.254 1.36 3.345 3.997 6.745 3.89 10.036-.845 24.399 15.53 42.432 22.031 63.376Zm291.638 13.492c2.883 1.25 6.093 1.604 7.208 3.318 2.421 3.7 4.896 8.024 5.195 12.267.327 4.488-2.856 7.263-8.35 7.78-2.666.244-5.875 3.835-7.262 6.69a43.5 43.5 0 0 0-3.482 13.084c-2.067 15.096-5.304 29.539-18.333 39.52-.517.382-.816 1.089-1.088 1.715-1.93 4.434-2.747 8.976 1.986 12.05 3.7 2.393 8.867-.79 10.69-6.365 2.964-9.03 5.412-18.251 8.65-27.173 3.453-9.547 7.48-18.931 11.56-28.234.625-1.414 2.937-2.094 4.46-3.1.435 1.577 1.387 3.236 1.197 4.76-2.23 18.142-4.733 36.257-6.882 54.427-.218 1.74 1.006 4.787 2.285 5.277 1.713.652 4.87.08 6.093-1.224 1.278-1.36 1.278-4.162 1.305-6.365.272-36.013.6-72.053.68-108.066q.11-57.773-.19-115.545c0-3.51-1.115-6.99-1.714-10.5l-2.203.272c-.462 4.434-1.55 8.922-1.224 13.274 1.36 19.094-6.637 34.136-19.203 47.6-11.56 12.376-20.047 26.194-19.285 44.2.3 6.963-.952 13.98-1.333 20.998-.109 1.959.463 3.972.925 7.807 2.013-2.72 2.938-3.672 3.51-4.787 8.975-17.762 17.815-35.605 26.981-53.285 1.333-2.584 4.08-4.434 6.474-6.963 5.005 9.22.734 36.23-5.087 45.478-4.488 7.072-9.084 14.09-13.219 21.38-1.795 3.182-2.557 6.962-3.78 10.47l1.713.654c2.53-3.046 4.923-6.256 7.698-9.058.87-.87 3.21-1.305 4.161-.761.925.544 1.306 2.61 1.333 4.025 0 1.252-.789 2.503-1.496 4.407Zm-241.59-143.97-1.17-2.91c-7.317 0-14.66-.327-21.923.244-1.605.136-3.808 3.292-4.243 5.386-1.605 7.725-3.59 15.586-3.672 23.42-.38 33.972-.19 67.945-.136 101.918 0 1.632.49 3.236.79 5.168 1.032-.653 1.467-.816 1.74-1.116l5.303-5.902c.544 2.502.98 5.06 1.66 7.534.38 1.36 1.115 2.639 1.713 3.944 1.251-.761 2.557-1.441 3.781-2.284q2.802-1.986 5.55-4.026c.842 1.686 1.522 3.509 2.61 5.032.898 1.25 2.34 3.1 3.454 3.02 3.047-.164 6.066-1.09 8.95-2.15a10.9 10.9 0 0 0-1.252-5.276 316 316 0 0 0-12.24-15.396c-7.126-8.54-12.43-18.17-13.11-29.267-.816-13.545-.408-27.173-.136-40.745.027-1.986 2.148-3.917 3.29-5.876 1.062 1.714 2.775 3.319 3.074 5.14 5.36 31.825 16.946 61.446 31.39 90.06.815 1.605 2.066 2.992 3.426 4.95 1.007-1.495 1.741-2.094 1.66-2.556-3.237-18.578 2.53-39.55-14.58-54.427-.68-.571-1.088-1.442-1.632-2.176-7.724-10.255-9.574-22.44-10.444-34.653-.68-9.302-3.863-16.048-12.784-19.666a21.8 21.8 0 0 1-6.175-4.161c-4.488-4.053-4.297-8.65 1.007-11.615 4.08-2.284 8.921-3.155 13.164-5.168 3.808-1.795 7.29-4.324 10.935-6.528Zm5.086 177.725 2.775.217c.625 2.013 1.36 3.972 1.904 6.012 4.433 16.945-2.748 31.552-9.548 46.158-6.2 13.355-6.337 13.274 7.97 12.403q1.36-.11 2.693.027c5.222.708 6.99-2.094 6.881-6.745-.49-23.283-.87-46.567-1.74-69.85-.11-2.665-2.612-7.18-4.57-7.507-8.54-1.442-13.22 1.224-14.362 6.963-1.985 9.983-3.726 20.02-5.712 30.002-1.85 9.33-6.419 17-14.878 21.678-7.616 4.216-10.336 10.5-8.813 18.687.463 2.42 2.15 4.596 3.291 6.88 2.176-1.304 5.36-2.066 6.392-3.997 8.922-16.647 21.325-31.661 24.263-51.218.49-3.345 2.257-6.5 3.427-9.737Zm-12.022-154.96c1.985 4.217 4.651 8.243 5.82 12.677 2.285 8.704 4.49 17.57 5.332 26.52.843 8.894 6.5 13.817 12.675 18.224 7.507 5.358 14.96 2.23 17.762-6.664 1.958-6.23 4.65-11.968 5.63-18.796 1.387-9.82 6.283-19.148 9.384-28.75.517-1.632-.326-3.7-.544-5.576-2.067.49-4.733.326-6.093 1.578-4.624 4.243-4.896 9.737-3.563 15.64.49 2.148.082 4.624-.462 6.8-.79 3.1-2.204 6.038-3.183 9.112-1.713 5.44-.625 12.104-8.214 17.57-.435-5.33-1.496-9.057-.87-12.457 1.577-8.432 3.7-16.782 5.983-25.078 5.794-21.135 2.503-20.427-17.027-20.21-2.094 0-4.16 1.034-6.773 1.74 7.208 6.339 14.2 5.849 21.68 1.987-1.878 10.608-3.564 11.668-11.507 8.486l-12.077-4.842c1.088 5.032 1.714 8.46 2.584 11.832 2.285 8.976 4.733 17.925 6.99 26.9.49 1.932.817 4.108.382 5.985a6.53 6.53 0 0 1-3.02 3.89c-.652.326-3.155-1.224-3.48-2.34a103 103 0 0 1-2.884-12.783c-.517-3.02-.327-6.202-.952-9.194-.925-4.325-2.639-8.514-3.455-12.838-1.06-5.63-4.189-8.868-10.09-9.384Zm172.257 25.95-2.393-.136c-.327 5.386-.245 10.853-1.143 16.157-.408 2.394-2.72 4.46-4.16 6.69-1.198-2.175-3.728-4.623-3.347-6.5 2.23-11.342.055-23.42 5.74-34.217.897-1.687.135-4.243.135-7.154-10.417 6.528-13.79 5.658-17.952-3.4 3.4 0 6.882.354 10.255-.19 1.17-.19 2.013-2.53 2.992-3.917-1.25-.79-2.475-2.122-3.78-2.23q-4.76-.408-9.494.163c-7.37.87-8.296 2.8-6.283 9.9 3.672 12.839 7.29 25.705 10.418 38.679 1.904 7.888-.925 10.744-8.024 9.275 1.278 6.583 3.318 8.432 10.172 9.33 7.344.952 13.464-1.795 15.967-7.507 3.59-8.27 1.115-16.592.897-24.888ZM911.81 493.895c1.387-1.605 1.931-1.931 1.931-2.23-.652-21.87-1.224-43.765-2.257-65.634-.082-1.904-3.02-4.787-5.06-5.222a68 68 0 0 0-14.742-1.116c-5.113.055-6.473 2.53-4.542 7.59 6.99 18.36 13.6 36.855 20.373 55.297 1.278 3.509 2.638 6.963 4.297 11.315m-1.632 78.798c4.352 1.47 7.127 2.83 10.01 3.183 1.55.19 3.318-1.387 4.977-2.176-1.006-1.47-1.686-3.727-3.046-4.298-9.058-3.78-16.7 2.122-15.504 11.887.354 2.91 1.306 5.712 1.904 8.595 1.904 9.057 4.08 18.088 5.44 27.227.354 2.366-1.822 5.14-2.856 7.725q-2.856-2.285-5.82-4.461c-.49-.354-1.198-.408-2.34-.762-2.475 4.352-.19 7.426 2.638 9.956 4.57 4.08 8.976 2.937 12.54-1.55 6.038 5.004 11.532 4.84 15.26-1.742 2.882-5.086 3.78-11.37 5.031-17.217.272-1.306-1.66-3.101-2.584-4.68-1.442 1.389-3.78 2.585-4.162 4.245-.816 3.48-.163 7.29-1.006 10.744-.517 2.148-2.666 3.916-4.107 5.848-1.36-2.068-3.89-4.19-3.808-6.202.244-5.82 1.305-11.642 2.475-17.38 1.441-7.182 3.291-14.28 5.086-21.951-8.568 6.093-15.558 4.08-20.128-7.045Zm256.496-89.624c1.523-.272 2.15-.217 2.367-.462 13.9-17.843 21.243-38.053 21.161-60.683 0-1.605-3.617-4.461-5.657-4.57-7.045-.38-12.594 4.679-14.008 13.845-1.904 12.213-2.748 24.616-3.78 36.965-.409 4.787-.056 9.656-.056 14.933Zm-112.96 102.626-2.477-1.224-4.216 1.74c-4.624 1.986-11.94 2.966-13.192 6.257-1.604 4.216 1.55 10.309 2.856 15.558 1.442 5.658 3.128 11.26 5.005 17.98Zm98.843 43.52c2.068 7.398 13.192 10.744 17.816 5.549.925-1.034.98-4.243.082-5.25-6.229-6.936-4.706-14.606-2.747-22.413.87-3.508 2.15-6.908 2.83-10.444.243-1.28-.382-3.455-1.334-4-1.034-.597-3.346-.325-4.298.49-3.48 3.074-7.235 6.012-5.712 11.86 1.061 4.107 1.306 8.46 1.55 12.73.327 5.875.164 11.696-8.187 11.424Zm-121.61-3.672c2.828 8.677 7.48 12.267 14.388 11.342 5.14-.707 9.22-2.883 10.091-9.792-8.65 5.196-16.293 4.053-24.48-1.55m31.335-39.277-2.34-.408c-1.278 5.087-2.638 10.146-3.753 15.26-.109.543 1.523 2.148 2.04 2.012 1.06-.272 2.448-1.224 2.72-2.176a90 90 0 0 0 2.502-11.342c.163-1.034-.76-2.23-1.197-3.373Zm40.392-155.72c1.795-3.835 3.808-6.283 3.236-7.29-1.17-2.148-3.726-3.535-5.712-5.222-1.06 1.442-3.318 3.264-2.992 4.243.79 2.42 2.775 4.434 5.44 8.27Zm-125.828-13.627c-1.876 3.21-3.699 5.14-3.318 5.93 1.142 2.257 3.182 4.08 4.896 6.065 1.278-1.414 3.862-3.21 3.59-4.19-.625-2.283-2.665-4.215-5.168-7.778Zm-20.508 2.856-1.034 2.42c2.013 1.769 4.352 5.196 5.984 4.897 2.611-.463 4.733-3.455 7.072-5.36l-1.034-1.957Zm49.15 14.906c2.502 2.094 3.482 3.454 4.787 3.89 2.367.815 4.923 1.087 7.426 1.468.054 0 .734-2.067.462-2.285-2.203-1.713-4.433-3.51-6.936-4.624-1.006-.462-2.72.68-5.739 1.523Zm38.896 145.003-.163-2.067c-4.27 0-8.595-.408-12.73.299-.952.163-1.278 4.08-1.795 5.93Zm-107.222 16.13 2.257.163 1.632-13.328-2.366-.3c-3.21 4.08-4.053 8.514-1.523 13.464m7.534-157.868-.68-2.176c-2.04.19-4.434-.218-6.01.734-1.824 1.06-2.939 3.318-4.353 5.06 2.15 0 4.46.407 6.42-.191 1.74-.544 3.1-2.23 4.65-3.4Zm175.875 24.452 6.011-15.83c-6.528 1.523-8.513 6.446-6.01 15.83m-63.023 147.56-2.367-.19v13.192h2.367Zm99.198-29.076 10.091 2.665.544-3.672-9.873-1.06c-.055 0-.163.38-.789 2.067Zm-255.408 4.08-3.454.217.598 9.52 3.346-.19-.463-9.52Zm-48.77-366.956q.028-74.065-.027-148.13c0-8.351-.38-16.73-.707-25.08-.353-9.22 2.013-11.994 11.234-11.886 27.39.327 54.753 1.143 82.144 1.17 25.813 0 51.653-1.034 77.465-1.088 24.48-.054 48.933.952 73.413.762 29.458-.218 58.888-1.143 88.32-1.823q15.285-.353 30.544-.98c5.386-.244 7.997 1.85 7.97 7.454-.082 17.217.054 34.408.081 51.625.028 38.733.218 77.493.055 116.226-.218 48.906-.762 97.81-1.17 146.717q-.136 19.366-.49 38.733c-.163 7.942-2.339 10.118-10.254 10.09-49.177-.135-98.355-.462-147.533-.49-31.035 0-62.07.3-93.105.572q-53.367.544-106.706 1.143c-6.69.08-9.438-2.83-9.465-10.336l.081-92.453v-82.226Zm14.906-35.66 3.237-.706c1.442 3.672 2.802 7.344 4.325 10.989 3.02 7.29 5.14 15.177 9.33 21.705 10.88 16.864 19.094 34.898 25.84 53.693.625 1.714 1.795 3.21 2.692 4.815l1.986-.463c0-2.937.435-5.93-.082-8.785-2.774-15.994-5.875-31.933-8.677-47.927a55.76 55.76 0 0 0-12.593-26.63c-12.594-15.122-20.618-32.45-22.032-52.36q-1.279-18.957-2.176-37.943c-.109-2.257.462-4.542.925-8.46 6.283 5.985 7.888 12.16 9.302 18.47 3.536 15.885 5.984 32.15 11.152 47.49 4.95 14.716 12.784 28.452 19.448 42.569.598 1.279 1.958 2.203 3.971 4.352.435-3.21.898-5.113.898-6.99-.082-16.103-.327-32.178-.408-48.28a16.32 16.32 0 0 0-7.86-14.2 32.1 32.1 0 0 1-13.247-19.882c-2.23-9.465-4.652-18.904-6.99-28.37-1.742-7.017-5.386-11.124-13.492-10.145-4.814.57-7.97-2.15-7.208-7.371 1.17-7.97 9.438-13.818 17.517-12.703 2.366.327 4.705.79 7.398 1.224V47.65l12.023 7.942c3.372-8.622 3.182-8.377 9.628-2.611 1.306 1.17 4.896.19 7.263-.435 1.142-.327 1.877-2.176 2.774-3.32q7.1 5.387 14.226-1.44l3.944 9.248c1.305-1.224 2.42-1.823 2.801-2.747 2.612-6.12 5.604-7.127 10.228-1.578 1.17 1.414 4.025 1.714 6.147 1.93 3.59.409 7.262.083 10.825.518 6.99.898 10.554 5.766 9.33 12.294-1.17 6.31-6.42 9.656-13.22 7.698-4.65-1.333-7.37-.136-9.193 4.162-4.542 10.825-8.976 21.705-13.817 32.395-3.917 8.622-7.67 17.408-16.348 22.848a9.52 9.52 0 0 0-3.726 6.664c-.707 14.008-.98 28.07-1.25 42.105-.028 2.23.788 4.46 1.223 6.692l1.822.326c1.442-2.122 3.373-4.053 4.27-6.365 8.813-23.392 22.903-44.934 24.535-70.83.272-4.242.898-8.811 2.693-12.565 2.257-4.733 5.712-8.922 9.057-13.002.735-.897 3.237-.353 4.924-.49.108 1.66.49 3.346.244 4.978-.625 4.434-2.012 8.786-2.23 13.22-.435 9.03-.272 18.088-.38 27.145-.218 18.55-6.447 34.136-20.482 47.056a78.9 78.9 0 0 0-17.055 23.283c-9.629 20.074-8.513 41.834-7.126 63.404.054 1.033 1.305 1.958 3.073 4.433 5.55-15.014 10.853-28.614 15.56-42.432 1.712-5.086 1.277-10.907 3.072-15.94 3.264-9.111 6.882-18.223 11.615-26.601 1.822-3.264 7.1-4.57 10.798-6.772.843 4.188 2.53 8.404 2.367 12.539-.3 6.963-2.068 13.845-2.72 20.808-1.496 16.075-9.357 29.05-19.15 41.262-4.242 5.277-7.86 11.07-11.75 16.647l1.333 1.088 7.208-1.687 1.306 7.18c2.34-.516 4.352-.788 6.23-1.413 6.31-2.095 12.565-3.156 17.57 2.53 4.95 5.602 3.046 11.886.925 17.978-1.524 4.407-4.597 5.794-9.112 4.516-7.916-2.23-9.684-1.197-11.832 6.908q-4.026 15.124-7.807 30.274a34.27 34.27 0 0 1-12.62 19.53c-7.644 5.93-9.52 25.568-3.047 33.13 1.142-1.442 2.448-2.666 3.182-4.162q12.594-25.215 25.052-50.484c3.29-6.69 6.201-13.6 9.656-20.21.734-1.414 3.046-1.985 4.624-2.937.707 1.55 1.66 3.047 2.012 4.679a8.16 8.16 0 0 1-.353 4.025c-3.509 10.5-6.61 21.189-10.853 31.389-4.434 10.635-10.118 20.754-15.014 31.226-1.823 3.916-1.605 7.126 4.161 7.099 17.653-.11 35.306-.055 52.96-.136 5.765-.027 6.771-2.04 3.89-7.1-3.13-5.494-6.666-10.825-9.25-16.564-7.099-15.75-13.219-31.851-12.294-49.586.136-2.638 1.06-5.25 1.632-7.86l2.448-.245q2.42 4.923 4.733 9.9c10.118 21.924 20.128 43.928 30.518 65.743 1.115 2.339 4.488 3.59 6.8 5.33 1.414-2.855 4.46-6.065 3.917-8.46-1.415-6.254-2.856-13.625-7.018-17.896a63.1 63.1 0 0 1-18.197-36.285c-.76-5.14-1.93-10.227-2.72-15.395-.979-6.337-4.324-9.683-10.988-9.547a21.8 21.8 0 0 1-6.664-1.006c-5.794-1.823-7.888-6.556-6.039-13.056 2.34-8.296 4.733-9.684 11.48-8.922 9.655 1.088 19.392 2.149 29.05 1.986 18.113-.3 36.201-1.47 54.29-2.285 5.875-.272 10.063 2.937 11.206 7.997a19.58 19.58 0 0 1-1.795 12.593c-2.476 4.543-7.344 5.549-12.485 3.128-4.325-2.013-6.963-.272-7.888 4.27-1.632 7.97-3.427 15.94-4.842 23.964-1.74 9.982-4.243 19.883-11.64 27.037-7.917 7.67-8.46 16.619-7.073 26.275.326 2.312 2.475 4.352 3.78 6.5 2.068-1.468 4.978-2.475 6.066-4.46 4.298-7.943 8.16-16.13 11.886-24.344 6.61-14.443 17.11-27.554 15.858-44.8-.054-.842.19-1.984.734-2.555 2.04-2.122 4.27-4.053 6.447-6.066 1.278 2.666 3.835 5.413 3.672 7.997-1.632 25.105-5.495 49.613-22.005 70.094-.734.925-.925 2.258-1.306 3.21h62.588l1.033-2.312q-6.038-6.12-12.158-12.16c-8.73-8.512-16.483-17.76-17.898-30.41-1.006-8.974-1.278-18.06-1.414-27.117-.027-2.012 1.85-4.08 2.83-6.092 1.767 1.686 4.677 3.128 5.085 5.086 3.373 15.94 11.86 29.213 20.944 42.269 6.474 9.275 12.512 18.877 18.85 28.26.788 1.17 2.23 2.095 3.563 2.639.408.163 1.822-1.17 2.176-2.04 3.726-8.867-.435-25.405-8.73-30.736-7.753-4.978-11.045-12.131-13.6-20.291-2.694-8.623-5.36-17.354-9.113-25.541a14.42 14.42 0 0 0-8.976-6.8c-5.957-1.251-11.343-1.904-11.832-9.466-.463-7.235 4.406-14.388 11.288-15.748 4.406-.87 8.976-.925 13.49-1.252 15.505-1.088 31.063-1.822 46.513-3.372 7.045-.708 13.545-2.34 19.883 2.937 5.63 4.679 12.158 8.269 18.66 12.567 0-4.325-.082-9.194 0-14.063.298-16.51 1.033-33.02.897-49.504-.218-25.785-1.007-51.571-1.578-77.357l-.544-17.544c-.19-6.283-.68-12.566-.49-18.822.218-7.67 1.306-15.314 1.442-22.984.218-12.43-.136-24.888-.054-37.346.081-9.03-.843-10.227-9.9-10.2-43.739 0-87.476.136-131.214.11q-57.446-.055-114.893-.327c-27.852-.11-55.705-.408-83.558-.435-8.242 0-9.357 1.36-9.438 9.574-.19 17.626-.68 35.278-.436 52.904q1.224 84.918 2.992 169.837c.055 2.285 2.23 4.542 3.428 6.8 3.182-2.285 9.384-.98 9.22-7.1-.136-5.684 2.856-4.787 5.984-3.182 2.557 1.306 4.815 3.237 7.372 5.005l4.65-4.216 8.025 4.488c-8.46-17.218-24.317-26.82-29.104-44.282-4.515-16.456-7.997-32.721-7.208-49.64Zm3.808 131.894 3.074-.87c1.251 1.985 2.801 3.862 3.726 5.984 4.135 9.547 8.024 19.203 12.16 28.75 5.575 12.866 11.178 25.73 17.053 38.46.79 1.742 3.182 2.748 4.814 4.08 1.061-1.577 3.237-3.29 3.047-4.678-1.66-12.158-1.469-24.724-11.696-34.435-4.679-4.433-7.562-11.152-10.119-17.3-3.808-9.165-6.528-18.794-9.819-28.18-2.42-6.907-8.24-7.016-14.062-6.417-6.175.652-5.576 5.548-5.522 9.846l1.088 75.37c.055 4.326 2.013 6.964 6.365 7.236q10.853.68 21.706.98c1.414.027 3.835-.653 4.052-1.47a5.98 5.98 0 0 0-1.115-4.76c-12.213-13.11-18.006-29.103-20.944-46.348-1.469-8.731-2.53-17.517-3.78-26.275Zm54.944-28.75c-5.195-.245-9.438-.87-13.6-.572-8.269.544-10.336 4.652-7.752 12.376 4.026 11.996 7.616 24.127 11.016 36.285.6 2.122-.68 4.787-1.115 7.208-2.013-1.985-4.869-3.617-5.82-6.038-2.15-5.44-3.156-11.315-5.033-16.864-.435-1.251-2.61-1.877-3.998-2.802-.599 1.523-1.959 3.21-1.687 4.57a185 185 0 0 0 4.325 17.109c2.876 9.07 12.38 14.272 21.57 11.804 7.616-2.04 13.71-12.24 12.077-20.536-.245-1.196-1.714-2.148-2.612-3.21-1.006 1.062-2.584 1.986-2.856 3.21-.49 2.15.3 4.652-.326 6.692-.598 1.876-2.394 3.372-3.645 5.032-1.25-1.66-3.699-3.428-3.563-4.978.598-7.126 1.06-14.443 3.182-21.19 2.15-6.88 3.836-13.49 3.482-21.16-5.005 1.713-3.944 10.444-10.554 7.398-3.944-1.795-7.316-4.787-10.96-7.262l.924-2.258c5.548.054 12.24 4.76 17-4.842Zm284.947 16.836c-4.624.952-9.139 1.388-13.246 2.91-2.557.953-5.658 3.21-6.5 5.577-2.966 8.269-4.57 17.054-7.644 25.296-2.72 7.29-4.95 16.265-10.445 20.645-10.227 8.132-8.84 18.006-8.377 28.206.081 1.877 3.236 5.14 4.814 5.06 2.584-.137 5.222-2.286 7.507-4.026.87-.653.816-2.503 1.251-3.808 6.556-18.986 12.92-38 19.83-56.848a17.4 17.4 0 0 1 7.18-8.432c7.344-4.108 8.704-7.1 5.63-14.607ZM927.233 63.97c-1.932-.68-3.564-1.823-5.14-1.687-5.686.436-13.547-.625-16.32 2.584-2.53 2.938-.246 10.826 1.17 16.212 2.501 9.6 6.31 18.85 8.73 28.45.734 2.938-.98 6.61-2.013 9.82-.599 1.877-2.013 3.482-3.074 5.222 2.067 1.224 3.971 3.183 6.175 3.564 11.587 2.012 22.984-13.954 18.686-26.004-.082-.244-.789-.244-2.584-.761-.789 4.08-1.142 8.214-2.53 11.995-.68 1.85-3.236 3.02-4.95 4.488-.816-1.904-2.04-3.726-2.285-5.712-.217-1.686.6-3.536 1.061-5.277 2.584-9.846 5.277-19.693 7.806-29.54.436-1.685.327-3.481.517-6.065-10.69 6.91-18.469 5.767-21.705-2.937 5.684-.218 12.512 3.563 16.428-4.352Zm230.03 284.784c1.278-7.48 2.394-14.851 3.835-22.168 1.496-7.616 3.291-15.178 5.087-23.365-2.965.68-5.359 1.17-7.698 1.822-8.704 2.42-11.206 6.828-9.03 15.477 1.224 4.815 2.584 9.656 3.155 14.58.353 3.073-.707 6.283-1.143 9.438l-7.29-4.515c-.135-.082-.434.054-1.93.299 1.332 6.473 6.636 8.73 11.396 10.77 5.25 2.286 11.125 3.51 15.695-1.66 4.19-4.731 7.317-9.872 3.536-16.51a6.26 6.26 0 0 1-.626-4.514c3.59-10.526 7.426-20.971 11.343-31.878-6.664.054-9.03 4.678-10.01 9.765a509 509 0 0 0-5.06 32.014c-.87 6.827-3.209 9.547-11.233 10.445Zm-107.984-17.98c-.218 3.237-.136 6.529-.789 9.684-.299 1.469-2.013 2.638-3.073 3.944-1.252-1.034-3.4-1.96-3.536-3.128-.517-4.407-.952-8.976-.354-13.328 1.387-10.01 3.4-19.938 5.005-29.05l-19.095-.925c1.034 4.27 2.64 9.14 3.346 14.144q1.958 14.09 3.074 28.288c.108 1.415-1.442 2.965-2.23 4.46-1.198-1.032-2.558-1.957-3.59-3.154-1.17-1.36-2.068-2.938-3.728-5.386-.897 6.692 1.768 11.288 7.48 13.927 5.168 2.393 10.5 3.046 15.26-.98 3.345-2.855 5.548-14.388 2.203-18.468Zm160.915-5.875-1.904-.843c-1.795 4.407-4.678 8.677-5.195 13.247-1.795 15.694-2.856 31.47-3.917 47.246-.109 1.768 1.28 4.814 2.611 5.222 1.632.517 4.597-.57 5.767-1.985 1.405-2 2.165-4.383 2.176-6.827.326-10.608.38-21.216.462-31.852Zm-276.16-6.065 1.85.408c1.168-1.877 2.773-3.645 3.453-5.685q3.236-9.547 5.766-19.312c.462-1.795-.19-3.89-.326-5.848-1.714 1.17-4.38 1.986-4.95 3.563a258 258 0 0 0-6.665 21.488c-.435 1.605.544 3.59.87 5.386m-45.07-250.077c-.462.38-2.366 1.25-2.42 2.23-.055 1.17 1.17 2.965 2.34 3.536 4.106 1.986 8.567 3.292 6.282 9.63-.272.76 2.285 3.209 3.917 3.698.897.272 3.318-1.604 3.726-2.937 1.74-5.55-6.854-16.157-13.818-16.157ZM935.72 94.08c7.97-2.53 12.784-11.206 10.091-16.537-1.496-2.992-4.433-4.706-5.93-1.034-2.175 5.33-2.774 11.315-4.16 17.598Zm-29.24 23.202c3.02-5.032 2.802-17.163-.38-20.7-.898-.98-2.612-1.223-3.945-1.795-.517 1.36-1.659 2.83-1.44 4.053q1.36 8.323 3.344 16.538c.19.76 1.578 1.25 2.448 1.904ZM1161.397 294.3c-4.65-3.481-15.558-4.08-18.088-.38-1.36 2.012-.598 5.82 0 8.65.218 1.033 2.748 1.577 4.216 2.338l.816-1.441-3.4-7.235c6.12-.79 11.941 5.385 16.43-1.96Zm-138.23 15.532c-2.067-5.44-3.454-10.173-5.74-14.444-.734-1.387-3.78-1.795-5.847-2.04-.762-.081-2.285 1.442-2.475 2.42-.463 2.64 9.492 13.139 14.062 14.036Zm-136.87-15.722c4.488 5.277 4.297 12.594 11.587 14.96 2.203-10.39-1.795-16.157-11.587-14.96m3.1-7.126c-6.147-5.36-10.363-4.108-14.116-.626-.98.925-.79 3.1-1.143 4.706 1.442.163 3.02.788 4.298.38 3.291-1.06 6.42-2.584 10.961-4.488Zm134.613 42.459v-13.818c-4.84 4.543-4.76 8.922 0 13.818"/><rect width="150" height="258.77" x="575.529" y="-176.387" fill="none" rx="0" ry="0" transform="translate(443.47 211.02)"/><path fill="#196129" d="M1063.82 97.238q-5.5 0-8.24 2.75-1.61.91-2.75 2.97-1.15 2.07-1.6 4.36l-16.49-1.15q.91-6.87 3.32-12.02 2.4-5.15 6.98-9.28 8.02-5.49 20.38-5.49h99.85l-2.29 17.4h-81.3l-6.41 47.86h55.65l-2.29 17.41h-55.65l-7.56 57.25h81.3l-2.29 17.4h-99.39Z"/></g><path fill="transparent" stroke="transparent" d="M782.5 0h435v706h-435z"/></g></svg>